<svg width="1340" height="564" viewBox="0 0 1340 564" fill="none" xmlns="http://www.w3.org/2000/svg">
<g filter="url(#filter0_d_326_3746)">
<path d="M113.6 155.4H176.4V441H113.6V155.4ZM269.569 373.8C269.569 379.933 270.769 385.267 273.169 389.8C275.835 394.067 279.169 397.667 283.169 400.6C287.169 403.267 291.702 405.267 296.769 406.6C302.102 407.933 307.569 408.6 313.169 408.6C317.169 408.6 321.302 408.2 325.569 407.4C330.102 406.333 334.102 404.867 337.569 403C341.302 400.867 344.369 398.2 346.769 395C349.169 391.533 350.369 387.267 350.369 382.2C350.369 373.667 344.635 367.267 333.169 363C321.969 358.733 306.235 354.467 285.969 350.2C277.702 348.333 269.569 346.2 261.569 343.8C253.835 341.133 246.902 337.8 240.769 333.8C234.635 329.533 229.702 324.333 225.969 318.2C222.235 311.8 220.369 304.067 220.369 295C220.369 281.667 222.902 270.733 227.969 262.2C233.302 253.667 240.235 247 248.769 242.2C257.302 237.133 266.902 233.667 277.569 231.8C288.235 229.667 299.169 228.6 310.369 228.6C321.569 228.6 332.369 229.667 342.769 231.8C353.435 233.933 362.902 237.533 371.169 242.6C379.435 247.667 386.235 254.467 391.569 263C397.169 271.267 400.502 281.8 401.569 294.6H347.569C346.769 283.667 342.635 276.333 335.169 272.6C327.702 268.6 318.902 266.6 308.769 266.6C305.569 266.6 302.102 266.867 298.369 267.4C294.635 267.667 291.169 268.467 287.969 269.8C285.035 271.133 282.502 273.133 280.369 275.8C278.235 278.2 277.169 281.533 277.169 285.8C277.169 290.867 279.035 295 282.769 298.2C286.502 301.4 291.302 304.067 297.169 306.2C303.302 308.067 310.235 309.8 317.969 311.4C325.702 313 333.569 314.733 341.569 316.6C349.835 318.467 357.835 320.733 365.569 323.4C373.569 326.067 380.635 329.667 386.769 334.2C392.902 338.467 397.835 343.933 401.569 350.6C405.302 357 407.169 365 407.169 374.6C407.169 388.2 404.369 399.667 398.769 409C393.435 418.067 386.369 425.4 377.569 431C368.769 436.6 358.635 440.467 347.169 442.6C335.969 445 324.502 446.2 312.769 446.2C300.769 446.2 289.035 445 277.569 442.6C266.102 440.2 255.835 436.2 246.769 430.6C237.969 425 230.635 417.667 224.769 408.6C219.169 399.267 216.102 387.667 215.569 373.8H269.569ZM438.013 297.8C438.813 284.467 442.146 273.4 448.013 264.6C453.879 255.8 461.346 248.733 470.413 243.4C479.479 238.067 489.613 234.333 500.813 232.2C512.279 229.8 523.746 228.6 535.213 228.6C545.613 228.6 556.146 229.4 566.813 231C577.479 232.333 587.213 235.133 596.013 239.4C604.813 243.667 612.013 249.667 617.613 257.4C623.213 264.867 626.013 274.867 626.013 287.4V395C626.013 404.333 626.546 413.267 627.613 421.8C628.679 430.333 630.546 436.733 633.213 441H575.613C574.546 437.8 573.613 434.6 572.813 431.4C572.279 427.933 571.879 424.467 571.613 421C562.546 430.333 551.879 436.867 539.613 440.6C527.346 444.333 514.813 446.2 502.013 446.2C492.146 446.2 482.946 445 474.413 442.6C465.879 440.2 458.413 436.467 452.013 431.4C445.613 426.333 440.546 419.933 436.813 412.2C433.346 404.467 431.613 395.267 431.613 384.6C431.613 372.867 433.613 363.267 437.613 355.8C441.879 348.067 447.213 341.933 453.613 337.4C460.279 332.867 467.746 329.533 476.013 327.4C484.546 325 493.079 323.133 501.613 321.8C510.146 320.467 518.546 319.4 526.813 318.6C535.079 317.8 542.413 316.6 548.813 315C555.213 313.4 560.279 311.133 564.013 308.2C567.746 305 569.479 300.467 569.213 294.6C569.213 288.467 568.146 283.667 566.013 280.2C564.146 276.467 561.479 273.667 558.013 271.8C554.813 269.667 550.946 268.333 546.413 267.8C542.146 267 537.479 266.6 532.413 266.6C521.213 266.6 512.413 269 506.013 273.8C499.613 278.6 495.879 286.6 494.813 297.8H438.013ZM569.213 339.8C566.813 341.933 563.746 343.667 560.013 345C556.546 346.067 552.679 347 548.413 347.8C544.413 348.6 540.146 349.267 535.613 349.8C531.079 350.333 526.546 351 522.013 351.8C517.746 352.6 513.479 353.667 509.213 355C505.213 356.333 501.613 358.2 498.413 360.6C495.479 362.733 493.079 365.533 491.213 369C489.346 372.467 488.413 376.867 488.413 382.2C488.413 387.267 489.346 391.533 491.213 395C493.079 398.467 495.613 401.267 498.813 403.4C502.013 405.267 505.746 406.6 510.013 407.4C514.279 408.2 518.679 408.6 523.213 408.6C534.413 408.6 543.079 406.733 549.213 403C555.346 399.267 559.879 394.867 562.813 389.8C565.746 384.467 567.479 379.133 568.013 373.8C568.813 368.467 569.213 364.2 569.213 361V339.8Z" fill="#EEF6E7"/>
<path d="M676.1 155.4H738.9V265H854.5V155.4H917.3V441H854.5V317.8H738.9V441H676.1V155.4ZM1016.98 337.8C1016.98 346.067 1017.78 354.2 1019.38 362.2C1020.98 369.933 1023.65 377 1027.38 383.4C1031.38 389.533 1036.58 394.467 1042.98 398.2C1049.38 401.933 1057.38 403.8 1066.98 403.8C1076.58 403.8 1084.58 401.933 1090.98 398.2C1097.65 394.467 1102.85 389.533 1106.58 383.4C1110.58 377 1113.38 369.933 1114.98 362.2C1116.58 354.2 1117.38 346.067 1117.38 337.8C1117.38 329.533 1116.58 321.4 1114.98 313.4C1113.38 305.4 1110.58 298.333 1106.58 292.2C1102.85 286.067 1097.65 281.133 1090.98 277.4C1084.58 273.4 1076.58 271.4 1066.98 271.4C1057.38 271.4 1049.38 273.4 1042.98 277.4C1036.58 281.133 1031.38 286.067 1027.38 292.2C1023.65 298.333 1020.98 305.4 1019.38 313.4C1017.78 321.4 1016.98 329.533 1016.98 337.8ZM960.184 337.8C960.184 321.267 962.718 306.333 967.784 293C972.851 279.4 980.051 267.933 989.384 258.6C998.718 249 1009.92 241.667 1022.98 236.6C1036.05 231.267 1050.72 228.6 1066.98 228.6C1083.25 228.6 1097.92 231.267 1110.98 236.6C1124.32 241.667 1135.65 249 1144.98 258.6C1154.32 267.933 1161.52 279.4 1166.58 293C1171.65 306.333 1174.18 321.267 1174.18 337.8C1174.18 354.333 1171.65 369.267 1166.58 382.6C1161.52 395.933 1154.32 407.4 1144.98 417C1135.65 426.333 1124.32 433.533 1110.98 438.6C1097.92 443.667 1083.25 446.2 1066.98 446.2C1050.72 446.2 1036.05 443.667 1022.98 438.6C1009.92 433.533 998.718 426.333 989.384 417C980.051 407.4 972.851 395.933 967.784 382.6C962.718 369.267 960.184 354.333 960.184 337.8ZM1213.52 379.4H1276.32V441H1213.52V379.4Z" fill="black"/>
<mask id="path-2-outside-1_326_3746" maskUnits="userSpaceOnUse" x="79" y="131" width="1064" height="294" fill="black">
<rect fill="white" x="79" y="131" width="1064" height="294"/>
<path d="M80.6 132.4H143.4V418H80.6V132.4ZM236.569 350.8C236.569 356.933 237.769 362.267 240.169 366.8C242.835 371.067 246.169 374.667 250.169 377.6C254.169 380.267 258.702 382.267 263.769 383.6C269.102 384.933 274.569 385.6 280.169 385.6C284.169 385.6 288.302 385.2 292.569 384.4C297.102 383.333 301.102 381.867 304.569 380C308.302 377.867 311.369 375.2 313.769 372C316.169 368.533 317.369 364.267 317.369 359.2C317.369 350.667 311.635 344.267 300.169 340C288.969 335.733 273.235 331.467 252.969 327.2C244.702 325.333 236.569 323.2 228.569 320.8C220.835 318.133 213.902 314.8 207.769 310.8C201.635 306.533 196.702 301.333 192.969 295.2C189.235 288.8 187.369 281.067 187.369 272C187.369 258.667 189.902 247.733 194.969 239.2C200.302 230.667 207.235 224 215.769 219.2C224.302 214.133 233.902 210.667 244.569 208.8C255.235 206.667 266.169 205.6 277.369 205.6C288.569 205.6 299.369 206.667 309.769 208.8C320.435 210.933 329.902 214.533 338.169 219.6C346.435 224.667 353.235 231.467 358.569 240C364.169 248.267 367.502 258.8 368.569 271.6H314.569C313.769 260.667 309.635 253.333 302.169 249.6C294.702 245.6 285.902 243.6 275.769 243.6C272.569 243.6 269.102 243.867 265.369 244.4C261.635 244.667 258.169 245.467 254.969 246.8C252.035 248.133 249.502 250.133 247.369 252.8C245.235 255.2 244.169 258.533 244.169 262.8C244.169 267.867 246.035 272 249.769 275.2C253.502 278.4 258.302 281.067 264.169 283.2C270.302 285.067 277.235 286.8 284.969 288.4C292.702 290 300.569 291.733 308.569 293.6C316.835 295.467 324.835 297.733 332.569 300.4C340.569 303.067 347.635 306.667 353.769 311.2C359.902 315.467 364.835 320.933 368.569 327.6C372.302 334 374.169 342 374.169 351.6C374.169 365.2 371.369 376.667 365.769 386C360.435 395.067 353.369 402.4 344.569 408C335.769 413.6 325.635 417.467 314.169 419.6C302.969 422 291.502 423.2 279.769 423.2C267.769 423.2 256.035 422 244.569 419.6C233.102 417.2 222.835 413.2 213.769 407.6C204.969 402 197.635 394.667 191.769 385.6C186.169 376.267 183.102 364.667 182.569 350.8H236.569ZM405.013 274.8C405.813 261.467 409.146 250.4 415.013 241.6C420.879 232.8 428.346 225.733 437.413 220.4C446.479 215.067 456.613 211.333 467.813 209.2C479.279 206.8 490.746 205.6 502.213 205.6C512.613 205.6 523.146 206.4 533.813 208C544.479 209.333 554.213 212.133 563.013 216.4C571.813 220.667 579.013 226.667 584.613 234.4C590.213 241.867 593.013 251.867 593.013 264.4V372C593.013 381.333 593.546 390.267 594.613 398.8C595.679 407.333 597.546 413.733 600.213 418H542.613C541.546 414.8 540.613 411.6 539.813 408.4C539.279 404.933 538.879 401.467 538.613 398C529.546 407.333 518.879 413.867 506.613 417.6C494.346 421.333 481.813 423.2 469.013 423.2C459.146 423.2 449.946 422 441.413 419.6C432.879 417.2 425.413 413.467 419.013 408.4C412.613 403.333 407.546 396.933 403.813 389.2C400.346 381.467 398.613 372.267 398.613 361.6C398.613 349.867 400.613 340.267 404.613 332.8C408.879 325.067 414.213 318.933 420.613 314.4C427.279 309.867 434.746 306.533 443.013 304.4C451.546 302 460.079 300.133 468.613 298.8C477.146 297.467 485.546 296.4 493.813 295.6C502.079 294.8 509.413 293.6 515.813 292C522.213 290.4 527.279 288.133 531.013 285.2C534.746 282 536.479 277.467 536.213 271.6C536.213 265.467 535.146 260.667 533.013 257.2C531.146 253.467 528.479 250.667 525.013 248.8C521.813 246.667 517.946 245.333 513.413 244.8C509.146 244 504.479 243.6 499.413 243.6C488.213 243.6 479.413 246 473.013 250.8C466.613 255.6 462.879 263.6 461.813 274.8H405.013ZM536.213 316.8C533.813 318.933 530.746 320.667 527.013 322C523.546 323.067 519.679 324 515.413 324.8C511.413 325.6 507.146 326.267 502.613 326.8C498.079 327.333 493.546 328 489.013 328.8C484.746 329.6 480.479 330.667 476.213 332C472.213 333.333 468.613 335.2 465.413 337.6C462.479 339.733 460.079 342.533 458.213 346C456.346 349.467 455.413 353.867 455.413 359.2C455.413 364.267 456.346 368.533 458.213 372C460.079 375.467 462.613 378.267 465.813 380.4C469.013 382.267 472.746 383.6 477.013 384.4C481.279 385.2 485.679 385.6 490.213 385.6C501.413 385.6 510.079 383.733 516.213 380C522.346 376.267 526.879 371.867 529.813 366.8C532.746 361.467 534.479 356.133 535.013 350.8C535.813 345.467 536.213 341.2 536.213 338V316.8ZM643.1 132.4H705.9V242H821.5V132.4H884.3V418H821.5V294.8H705.9V418H643.1V132.4ZM983.984 314.8C983.984 323.067 984.784 331.2 986.384 339.2C987.984 346.933 990.651 354 994.384 360.4C998.384 366.533 1003.58 371.467 1009.98 375.2C1016.38 378.933 1024.38 380.8 1033.98 380.8C1043.58 380.8 1051.58 378.933 1057.98 375.2C1064.65 371.467 1069.85 366.533 1073.58 360.4C1077.58 354 1080.38 346.933 1081.98 339.2C1083.58 331.2 1084.38 323.067 1084.38 314.8C1084.38 306.533 1083.58 298.4 1081.98 290.4C1080.38 282.4 1077.58 275.333 1073.58 269.2C1069.85 263.067 1064.65 258.133 1057.98 254.4C1051.58 250.4 1043.58 248.4 1033.98 248.4C1024.38 248.4 1016.38 250.4 1009.98 254.4C1003.58 258.133 998.384 263.067 994.384 269.2C990.651 275.333 987.984 282.4 986.384 290.4C984.784 298.4 983.984 306.533 983.984 314.8ZM927.184 314.8C927.184 298.267 929.718 283.333 934.784 270C939.851 256.4 947.051 244.933 956.384 235.6C965.718 226 976.918 218.667 989.984 213.6C1003.05 208.267 1017.72 205.6 1033.98 205.6C1050.25 205.6 1064.92 208.267 1077.98 213.6C1091.32 218.667 1102.65 226 1111.98 235.6C1121.32 244.933 1128.52 256.4 1133.58 270C1138.65 283.333 1141.18 298.267 1141.18 314.8C1141.18 331.333 1138.65 346.267 1133.58 359.6C1128.52 372.933 1121.32 384.4 1111.98 394C1102.65 403.333 1091.32 410.533 1077.98 415.6C1064.92 420.667 1050.25 423.2 1033.98 423.2C1017.72 423.2 1003.05 420.667 989.984 415.6C976.918 410.533 965.718 403.333 956.384 394C947.051 384.4 939.851 372.933 934.784 359.6C929.718 346.267 927.184 331.333 927.184 314.8Z"/>
</mask>
<path d="M80.6 132.4V131.4H79.6V132.4H80.6ZM143.4 132.4H144.4V131.4H143.4V132.4ZM143.4 418V419H144.4V418H143.4ZM80.6 418H79.6V419H80.6V418ZM80.6 132.4V133.4H143.4V132.4V131.4H80.6V132.4ZM143.4 132.4H142.4V418H143.4H144.4V132.4H143.4ZM143.4 418V417H80.6V418V419H143.4V418ZM80.6 418H81.6V132.4H80.6H79.6V418H80.6ZM236.569 350.8H237.569V349.8H236.569V350.8ZM240.169 366.8L239.285 367.268L239.302 367.3L239.321 367.33L240.169 366.8ZM250.169 377.6L249.577 378.406L249.595 378.42L249.614 378.432L250.169 377.6ZM263.769 383.6L263.514 384.567L263.526 384.57L263.769 383.6ZM292.569 384.4L292.753 385.383L292.776 385.379L292.798 385.373L292.569 384.4ZM304.569 380L305.043 380.88L305.054 380.874L305.065 380.868L304.569 380ZM313.769 372L314.569 372.6L314.58 372.585L314.591 372.569L313.769 372ZM300.169 340L299.813 340.935L299.82 340.937L300.169 340ZM252.969 327.2L252.748 328.175L252.756 328.177L252.763 328.179L252.969 327.2ZM228.569 320.8L228.243 321.745L228.262 321.752L228.281 321.758L228.569 320.8ZM207.769 310.8L207.198 311.621L207.21 311.629L207.222 311.638L207.769 310.8ZM192.969 295.2L192.105 295.704L192.11 295.712L192.115 295.72L192.969 295.2ZM194.969 239.2L194.121 238.67L194.115 238.68L194.109 238.689L194.969 239.2ZM215.769 219.2L216.259 220.072L216.269 220.066L216.279 220.06L215.769 219.2ZM244.569 208.8L244.741 209.785L244.753 209.783L244.765 209.781L244.569 208.8ZM309.769 208.8L309.568 209.78L309.573 209.781L309.769 208.8ZM338.169 219.6L337.646 220.453L338.169 219.6ZM358.569 240L357.721 240.53L357.73 240.546L357.741 240.561L358.569 240ZM368.569 271.6V272.6H369.656L369.565 271.517L368.569 271.6ZM314.569 271.6L313.571 271.673L313.639 272.6H314.569V271.6ZM302.169 249.6L301.697 250.481L301.709 250.488L301.722 250.494L302.169 249.6ZM265.369 244.4L265.44 245.397L265.475 245.395L265.51 245.39L265.369 244.4ZM254.969 246.8L254.584 245.877L254.569 245.883L254.555 245.89L254.969 246.8ZM247.369 252.8L248.116 253.464L248.133 253.445L248.15 253.425L247.369 252.8ZM264.169 283.2L263.827 284.14L263.852 284.149L263.878 284.157L264.169 283.2ZM284.969 288.4L284.766 289.379L284.969 288.4ZM308.569 293.6L308.342 294.574L308.348 294.575L308.569 293.6ZM332.569 300.4L332.243 301.345L332.253 301.349L332.569 300.4ZM353.769 311.2L353.174 312.004L353.186 312.013L353.198 312.021L353.769 311.2ZM368.569 327.6L367.696 328.089L367.701 328.096L367.705 328.104L368.569 327.6ZM365.769 386L364.911 385.485L364.907 385.493L365.769 386ZM344.569 408L345.106 408.844L344.569 408ZM314.169 419.6L313.986 418.617L313.973 418.619L313.959 418.622L314.169 419.6ZM244.569 419.6L244.774 418.621L244.569 419.6ZM213.769 407.6L213.232 408.444L213.243 408.451L213.769 407.6ZM191.769 385.6L190.911 386.115L190.92 386.129L190.929 386.143L191.769 385.6ZM182.569 350.8V349.8H181.53L181.569 350.838L182.569 350.8ZM236.569 350.8H235.569C235.569 357.065 236.795 362.565 239.285 367.268L240.169 366.8L241.053 366.332C238.742 361.969 237.569 356.802 237.569 350.8H236.569ZM240.169 366.8L239.321 367.33C242.054 371.703 245.474 375.397 249.577 378.406L250.169 377.6L250.76 376.794C246.864 373.936 243.617 370.431 241.017 366.27L240.169 366.8ZM250.169 377.6L249.614 378.432C253.714 381.165 258.35 383.208 263.514 384.567L263.769 383.6L264.023 382.633C259.054 381.325 254.624 379.368 250.723 376.768L250.169 377.6ZM263.769 383.6L263.526 384.57C268.94 385.924 274.489 386.6 280.169 386.6V385.6V384.6C274.649 384.6 269.264 383.943 264.011 382.63L263.769 383.6ZM280.169 385.6V386.6C284.236 386.6 288.431 386.193 292.753 385.383L292.569 384.4L292.384 383.417C288.173 384.207 284.102 384.6 280.169 384.6V385.6ZM292.569 384.4L292.798 385.373C297.401 384.29 301.486 382.796 305.043 380.88L304.569 380L304.095 379.12C300.718 380.938 296.803 382.376 292.34 383.427L292.569 384.4ZM304.569 380L305.065 380.868C308.908 378.672 312.081 375.917 314.569 372.6L313.769 372L312.969 371.4C310.657 374.483 307.696 377.061 304.073 379.132L304.569 380ZM313.769 372L314.591 372.569C317.128 368.904 318.369 364.428 318.369 359.2H317.369H316.369C316.369 364.105 315.209 368.163 312.947 371.431L313.769 372ZM317.369 359.2H318.369C318.369 354.685 316.843 350.715 313.814 347.333C310.803 343.972 306.342 341.23 300.517 339.063L300.169 340L299.82 340.937C305.462 343.036 309.602 345.628 312.324 348.667C315.028 351.685 316.369 355.181 316.369 359.2H317.369ZM300.169 340L300.525 339.066C289.253 334.772 273.461 330.492 253.175 326.221L252.969 327.2L252.763 328.179C273.009 332.441 288.684 336.695 299.813 340.934L300.169 340ZM252.969 327.2L253.189 326.225C244.945 324.363 236.834 322.235 228.856 319.842L228.569 320.8L228.281 321.758C236.304 324.165 244.46 326.304 252.748 328.175L252.969 327.2ZM228.569 320.8L228.895 319.855C221.23 317.212 214.372 313.913 208.315 309.962L207.769 310.8L207.222 311.638C213.432 315.687 220.441 319.055 228.243 321.745L228.569 320.8ZM207.769 310.8L208.34 309.979C202.316 305.789 197.481 300.69 193.823 294.68L192.969 295.2L192.115 295.72C195.923 301.977 200.955 307.278 207.198 311.621L207.769 310.8ZM192.969 295.2L193.833 294.696C190.206 288.48 188.369 280.929 188.369 272H187.369H186.369C186.369 281.204 188.264 289.12 192.105 295.704L192.969 295.2ZM187.369 272H188.369C188.369 258.787 190.88 248.045 195.829 239.711L194.969 239.2L194.109 238.689C188.924 247.422 186.369 258.547 186.369 272H187.369ZM194.969 239.2L195.817 239.73C201.064 231.335 207.876 224.787 216.259 220.072L215.769 219.2L215.278 218.328C206.595 223.213 199.54 229.999 194.121 238.67L194.969 239.2ZM215.769 219.2L216.279 220.06C224.699 215.06 234.183 211.633 244.741 209.785L244.569 208.8L244.396 207.815C233.621 209.701 223.905 213.206 215.258 218.34L215.769 219.2ZM244.569 208.8L244.765 209.781C255.365 207.661 266.233 206.6 277.369 206.6V205.6V204.6C266.105 204.6 255.106 205.673 244.373 207.819L244.569 208.8ZM277.369 205.6V206.6C288.505 206.6 299.237 207.661 309.568 209.78L309.769 208.8L309.97 207.82C299.5 205.673 288.633 204.6 277.369 204.6V205.6ZM309.769 208.8L309.573 209.781C320.138 211.894 329.491 215.454 337.646 220.453L338.169 219.6L338.691 218.747C330.313 213.612 320.733 209.973 309.965 207.819L309.769 208.8ZM338.169 219.6L337.646 220.453C345.776 225.435 352.466 232.123 357.721 240.53L358.569 240L359.417 239.47C354.005 230.811 347.095 223.898 338.691 218.747L338.169 219.6ZM358.569 240L357.741 240.561C363.221 248.65 366.516 259.006 367.572 271.683L368.569 271.6L369.565 271.517C368.488 258.594 365.117 247.883 359.397 239.439L358.569 240ZM368.569 271.6V270.6H314.569V271.6V272.6H368.569V271.6ZM314.569 271.6L315.566 271.527C314.75 260.367 310.496 252.646 302.616 248.706L302.169 249.6L301.722 250.494C308.775 254.021 312.788 260.966 313.571 271.673L314.569 271.6ZM302.169 249.6L302.641 248.719C295.003 244.627 286.035 242.6 275.769 242.6V243.6V244.6C285.77 244.6 294.401 246.573 301.697 250.481L302.169 249.6ZM275.769 243.6V242.6C272.514 242.6 268.999 242.871 265.227 243.41L265.369 244.4L265.51 245.39C269.205 244.862 272.624 244.6 275.769 244.6V243.6ZM265.369 244.4L265.298 243.403C261.465 243.676 257.892 244.499 254.584 245.877L254.969 246.8L255.353 247.723C258.446 246.434 261.806 245.657 265.44 245.397L265.369 244.4ZM254.969 246.8L254.555 245.89C251.47 247.292 248.813 249.393 246.588 252.175L247.369 252.8L248.15 253.425C250.191 250.873 252.601 248.975 255.383 247.71L254.969 246.8ZM247.369 252.8L246.621 252.136C244.278 254.772 243.169 258.37 243.169 262.8H244.169H245.169C245.169 258.696 246.193 255.628 248.116 253.464L247.369 252.8ZM244.169 262.8H243.169C243.169 268.148 245.155 272.563 249.118 275.959L249.769 275.2L250.42 274.441C246.915 271.437 245.169 267.585 245.169 262.8H244.169ZM249.769 275.2L249.118 275.959C252.964 279.255 257.876 281.976 263.827 284.14L264.169 283.2L264.51 282.26C258.728 280.157 254.041 277.545 250.42 274.441L249.769 275.2ZM264.169 283.2L263.878 284.157C270.046 286.034 277.01 287.774 284.766 289.379L284.969 288.4L285.171 287.421C277.461 285.826 270.558 284.099 264.46 282.243L264.169 283.2ZM284.969 288.4L284.766 289.379C292.491 290.977 300.349 292.709 308.342 294.574L308.569 293.6L308.796 292.626C300.788 290.758 292.913 289.022 285.171 287.421L284.969 288.4ZM308.569 293.6L308.348 294.575C316.581 296.434 324.545 298.691 332.243 301.345L332.569 300.4L332.895 299.455C325.126 296.776 317.09 294.499 308.789 292.625L308.569 293.6ZM332.569 300.4L332.253 301.349C340.163 303.986 347.134 307.54 353.174 312.004L353.769 311.2L354.363 310.396C348.137 305.794 340.974 302.148 332.885 299.451L332.569 300.4ZM353.769 311.2L353.198 312.021C359.204 316.199 364.035 321.551 367.696 328.089L368.569 327.6L369.441 327.111C365.636 320.316 360.6 314.734 354.34 310.379L353.769 311.2ZM368.569 327.6L367.705 328.104C371.326 334.312 373.169 342.126 373.169 351.6H374.169H375.169C375.169 341.874 373.278 333.688 369.433 327.096L368.569 327.6ZM374.169 351.6H373.169C373.169 365.064 370.397 376.342 364.911 385.486L365.769 386L366.626 386.514C372.34 376.991 375.169 365.336 375.169 351.6H374.169ZM365.769 386L364.907 385.493C359.653 394.424 352.697 401.642 344.032 407.156L344.569 408L345.106 408.844C354.04 403.158 361.218 395.709 366.631 386.507L365.769 386ZM344.569 408L344.032 407.156C335.352 412.68 325.342 416.504 313.986 418.617L314.169 419.6L314.352 420.583C325.929 418.429 336.186 414.52 345.106 408.844L344.569 408ZM314.169 419.6L313.959 418.622C302.83 421.007 291.433 422.2 279.769 422.2V423.2V424.2C291.571 424.2 303.108 422.993 314.378 420.578L314.169 419.6ZM279.769 423.2V422.2C267.836 422.2 256.171 421.007 244.774 418.621L244.569 419.6L244.364 420.579C255.9 422.993 267.702 424.2 279.769 424.2V423.2ZM244.569 419.6L244.774 418.621C233.409 416.243 223.253 412.283 214.294 406.749L213.769 407.6L213.243 408.451C222.418 414.117 232.795 418.157 244.364 420.579L244.569 419.6ZM213.769 407.6L214.306 406.756C205.631 401.236 198.4 394.007 192.608 385.057L191.769 385.6L190.929 386.143C196.871 395.326 204.306 402.764 213.232 408.444L213.769 407.6ZM191.769 385.6L192.626 385.086C187.133 375.931 184.097 364.505 183.568 350.762L182.569 350.8L181.569 350.838C182.108 364.828 185.204 376.603 190.911 386.115L191.769 385.6ZM182.569 350.8V351.8H236.569V350.8V349.8H182.569V350.8ZM405.013 274.8L404.014 274.74L403.951 275.8H405.013V274.8ZM415.013 241.6L415.845 242.155L415.013 241.6ZM437.413 220.4L437.92 221.262L437.413 220.4ZM467.812 209.2L468 210.182L468.009 210.181L468.017 210.179L467.812 209.2ZM533.812 208L533.664 208.989L533.676 208.991L533.688 208.992L533.812 208ZM563.013 216.4L562.576 217.3L563.013 216.4ZM584.612 234.4L583.803 234.986L583.807 234.993L583.812 235L584.612 234.4ZM594.612 398.8L593.62 398.924L594.612 398.8ZM600.213 418V419H602.017L601.06 417.47L600.213 418ZM542.613 418L541.664 418.316L541.892 419H542.613V418ZM539.812 408.4L538.824 408.552L538.831 408.598L538.842 408.643L539.812 408.4ZM538.613 398L539.61 397.923L539.44 395.713L537.895 397.303L538.613 398ZM506.613 417.6L506.904 418.557L506.613 417.6ZM441.413 419.6L441.683 418.637L441.413 419.6ZM419.013 408.4L418.392 409.184L419.013 408.4ZM403.812 389.2L402.9 389.609L402.906 389.622L402.912 389.635L403.812 389.2ZM404.612 332.8L403.737 332.317L403.731 332.328L404.612 332.8ZM420.612 314.4L420.05 313.573L420.042 313.578L420.034 313.584L420.612 314.4ZM443.013 304.4L443.262 305.368L443.273 305.366L443.283 305.363L443.013 304.4ZM468.613 298.8L468.767 299.788L468.613 298.8ZM493.812 295.6L493.716 294.605L493.812 295.6ZM515.812 292L515.57 291.03L515.812 292ZM531.013 285.2L531.63 285.986L531.647 285.973L531.663 285.959L531.013 285.2ZM536.212 271.6H535.212V271.623L535.214 271.645L536.212 271.6ZM533.013 257.2L532.118 257.647L532.138 257.687L532.161 257.724L533.013 257.2ZM525.013 248.8L524.458 249.632L524.497 249.658L524.538 249.68L525.013 248.8ZM513.413 244.8L513.228 245.783L513.262 245.789L513.296 245.793L513.413 244.8ZM461.812 274.8V275.8H462.722L462.808 274.895L461.812 274.8ZM536.212 316.8H537.212V314.573L535.548 316.053L536.212 316.8ZM527.013 322L527.307 322.956L527.328 322.949L527.349 322.942L527.013 322ZM515.413 324.8L515.228 323.817L515.216 323.819L515.413 324.8ZM502.613 326.8L502.496 325.807L502.613 326.8ZM489.013 328.8L488.839 327.815L488.828 327.817L489.013 328.8ZM476.212 332L475.914 331.046L475.905 331.048L475.896 331.051L476.212 332ZM465.413 337.6L466.001 338.409L466.007 338.404L466.013 338.4L465.413 337.6ZM458.212 372L457.332 372.474L458.212 372ZM465.812 380.4L465.258 381.232L465.283 381.249L465.309 381.264L465.812 380.4ZM477.013 384.4L477.197 383.417L477.013 384.4ZM516.212 380L515.693 379.146L516.212 380ZM529.812 366.8L530.678 367.301L530.683 367.292L530.689 367.282L529.812 366.8ZM535.013 350.8L534.024 350.652L534.02 350.676L534.017 350.701L535.013 350.8ZM405.013 274.8L406.011 274.86C406.803 261.657 410.099 250.773 415.845 242.155L415.013 241.6L414.18 241.045C408.193 250.027 404.822 261.276 404.014 274.74L405.013 274.8ZM415.013 241.6L415.845 242.155C421.628 233.48 428.984 226.518 437.92 221.262L437.413 220.4L436.905 219.538C427.708 224.948 420.13 232.12 414.18 241.045L415.013 241.6ZM437.413 220.4L437.92 221.262C446.879 215.991 456.903 212.296 468 210.182L467.812 209.2L467.625 208.218C456.322 210.371 446.079 214.142 436.905 219.538L437.413 220.4ZM467.812 209.2L468.017 210.179C479.418 207.793 490.816 206.6 502.212 206.6V205.6V204.6C490.676 204.6 479.14 205.807 467.608 208.221L467.812 209.2ZM502.212 205.6V206.6C512.561 206.6 523.045 207.396 533.664 208.989L533.812 208L533.961 207.011C523.247 205.404 512.664 204.6 502.212 204.6V205.6ZM533.812 208L533.688 208.992C544.257 210.313 553.884 213.085 562.576 217.3L563.013 216.4L563.449 215.5C554.541 211.181 544.701 208.353 533.937 207.008L533.812 208ZM563.013 216.4L562.576 217.3C571.232 221.496 578.302 227.39 583.803 234.986L584.612 234.4L585.422 233.813C579.723 225.943 572.394 219.837 563.449 215.5L563.013 216.4ZM584.612 234.4L583.812 235C589.245 242.243 592.013 252.01 592.013 264.4H593.013H594.013C594.013 251.724 591.18 241.491 585.412 233.8L584.612 234.4ZM593.013 264.4H592.013V372H593.013H594.013V264.4H593.013ZM593.013 372H592.013C592.013 381.371 592.548 390.346 593.62 398.924L594.612 398.8L595.605 398.676C594.544 390.187 594.013 381.295 594.013 372H593.013ZM594.612 398.8L593.62 398.924C594.694 407.513 596.585 414.082 599.365 418.53L600.213 418L601.06 417.47C598.507 413.385 596.664 407.153 595.605 398.676L594.612 398.8ZM600.213 418V417H542.613V418V419H600.213V418ZM542.613 418L543.561 417.684C542.502 414.508 541.576 411.332 540.783 408.157L539.812 408.4L538.842 408.643C539.649 411.868 540.589 415.092 541.664 418.316L542.613 418ZM539.812 408.4L540.801 408.248C540.271 404.806 539.874 401.365 539.61 397.923L538.613 398L537.615 398.077C537.884 401.569 538.287 405.061 538.824 408.552L539.812 408.4ZM538.613 398L537.895 397.303C528.945 406.517 518.424 412.96 506.321 416.643L506.613 417.6L506.904 418.557C519.335 414.773 530.147 408.15 539.33 398.697L538.613 398ZM506.613 417.6L506.321 416.643C494.149 420.348 481.714 422.2 469.013 422.2V423.2V424.2C481.911 424.2 494.543 422.319 506.904 418.557L506.613 417.6ZM469.013 423.2V422.2C459.227 422.2 450.119 421.01 441.683 418.637L441.413 419.6L441.142 420.563C449.773 422.99 459.065 424.2 469.013 424.2V423.2ZM441.413 419.6L441.683 418.637C433.266 416.27 425.921 412.594 419.633 407.616L419.013 408.4L418.392 409.184C424.904 414.34 432.492 418.13 441.142 420.563L441.413 419.6ZM419.013 408.4L419.633 407.616C413.358 402.648 408.384 396.37 404.713 388.765L403.812 389.2L402.912 389.635C406.707 397.497 411.867 404.019 418.392 409.184L419.013 408.4ZM403.812 389.2L404.725 388.791C401.329 381.215 399.612 372.161 399.612 361.6H398.612H397.612C397.612 372.372 399.363 381.718 402.9 389.609L403.812 389.2ZM398.612 361.6H399.612C399.612 349.971 401.596 340.549 405.494 333.272L404.612 332.8L403.731 332.328C399.629 339.985 397.612 349.762 397.612 361.6H398.612ZM404.612 332.8L405.488 333.283C409.691 325.665 414.928 319.652 421.191 315.216L420.612 314.4L420.034 313.584C413.497 318.215 408.067 324.468 403.737 332.317L404.612 332.8ZM420.612 314.4L421.175 315.227C427.741 310.762 435.101 307.475 443.262 305.368L443.013 304.4L442.763 303.432C434.391 305.592 426.818 308.971 420.05 313.573L420.612 314.4ZM443.013 304.4L443.283 305.363C451.779 302.973 460.274 301.115 468.767 299.788L468.613 298.8L468.458 297.812C459.885 299.152 451.312 301.027 442.742 303.437L443.013 304.4ZM468.613 298.8L468.767 299.788C477.282 298.458 485.662 297.393 493.909 296.595L493.812 295.6L493.716 294.605C485.429 295.407 477.01 296.476 468.458 297.812L468.613 298.8ZM493.812 295.6L493.909 296.595C502.213 295.792 509.597 294.585 516.055 292.97L515.812 292L515.57 291.03C509.228 292.615 501.946 293.808 493.716 294.605L493.812 295.6ZM515.812 292L516.055 292.97C522.542 291.348 527.752 289.034 531.63 285.986L531.013 285.2L530.395 284.414C526.806 287.233 521.883 289.452 515.57 291.03L515.812 292ZM531.013 285.2L531.663 285.959C535.677 282.519 537.489 277.662 537.211 271.555L536.212 271.6L535.214 271.645C535.469 277.271 533.815 281.481 530.362 284.441L531.013 285.2ZM536.212 271.6H537.212C537.212 265.369 536.132 260.361 533.864 256.676L533.013 257.2L532.161 257.724C534.16 260.973 535.212 265.565 535.212 271.6H536.212ZM533.013 257.2L533.907 256.753C531.954 252.847 529.146 249.89 525.487 247.92L525.013 248.8L524.538 249.68C527.812 251.443 530.338 254.086 532.118 257.647L533.013 257.2ZM525.013 248.8L525.567 247.968C522.214 245.732 518.19 244.355 513.529 243.807L513.413 244.8L513.296 245.793C517.701 246.311 521.411 247.601 524.458 249.632L525.013 248.8ZM513.413 244.8L513.597 243.817C509.26 243.004 504.531 242.6 499.413 242.6V243.6V244.6C504.427 244.6 509.031 244.996 513.228 245.783L513.413 244.8ZM499.413 243.6V242.6C488.081 242.6 479.043 245.027 472.413 250L473.013 250.8L473.613 251.6C479.782 246.973 488.344 244.6 499.413 244.6V243.6ZM473.013 250.8L472.413 250C465.708 255.029 461.899 263.342 460.817 274.705L461.812 274.8L462.808 274.895C463.859 263.858 467.517 256.171 473.613 251.6L473.013 250.8ZM461.812 274.8V273.8H405.013V274.8V275.8H461.812V274.8ZM536.212 316.8L535.548 316.053C533.264 318.083 530.316 319.758 526.676 321.058L527.013 322L527.349 322.942C531.176 321.575 534.361 319.783 536.877 317.547L536.212 316.8ZM527.013 322L526.718 321.044C523.294 322.098 519.465 323.023 515.228 323.817L515.413 324.8L515.597 325.783C519.894 324.977 523.798 324.035 527.307 322.956L527.013 322ZM515.413 324.8L515.216 323.819C511.246 324.614 507.005 325.276 502.496 325.807L502.613 326.8L502.729 327.793C507.286 327.257 511.579 326.586 515.609 325.781L515.413 324.8ZM502.613 326.8L502.496 325.807C497.943 326.342 493.391 327.012 488.839 327.815L489.013 328.8L489.186 329.785C493.701 328.988 498.215 328.324 502.729 327.793L502.613 326.8ZM489.013 328.8L488.828 327.817C484.522 328.625 480.217 329.701 475.914 331.046L476.212 332L476.511 332.954C480.741 331.632 484.97 330.575 489.197 329.783L489.013 328.8ZM476.212 332L475.896 331.051C471.8 332.417 468.103 334.332 464.812 336.8L465.413 337.6L466.013 338.4C469.122 336.068 472.625 334.25 476.529 332.949L476.212 332ZM465.413 337.6L464.824 336.791C461.76 339.02 459.264 341.939 457.332 345.526L458.212 346L459.093 346.474C460.895 343.128 463.199 340.447 466.001 338.409L465.413 337.6ZM458.212 346L457.332 345.526C455.364 349.181 454.413 353.757 454.413 359.2H455.413H456.413C456.413 353.976 457.328 349.753 459.093 346.474L458.212 346ZM455.413 359.2H454.413C454.413 364.386 455.368 368.826 457.332 372.474L458.212 372L459.093 371.526C457.324 368.241 456.413 364.147 456.413 359.2H455.413ZM458.212 372L457.332 372.474C459.274 376.081 461.918 379.006 465.258 381.232L465.812 380.4L466.367 379.568C463.307 377.528 460.884 374.852 459.093 371.526L458.212 372ZM465.812 380.4L465.309 381.264C468.623 383.197 472.468 384.565 476.828 385.383L477.013 384.4L477.197 383.417C473.024 382.635 469.402 381.336 466.316 379.536L465.812 380.4ZM477.013 384.4L476.828 385.383C481.158 386.195 485.62 386.6 490.212 386.6V385.6V384.6C485.738 384.6 481.4 384.205 477.197 383.417L477.013 384.4ZM490.212 385.6V386.6C501.502 386.6 510.378 384.722 516.732 380.854L516.212 380L515.693 379.146C509.78 382.745 501.323 384.6 490.212 384.6V385.6ZM516.212 380L516.732 380.854C522.977 377.053 527.644 372.542 530.678 367.301L529.812 366.8L528.947 366.299C526.115 371.192 521.715 375.48 515.693 379.146L516.212 380ZM529.812 366.8L530.689 367.282C533.678 361.846 535.459 356.384 536.008 350.9L535.013 350.8L534.017 350.701C533.499 355.883 531.813 361.087 528.936 366.318L529.812 366.8ZM535.013 350.8L536.001 350.948C536.805 345.594 537.212 341.272 537.212 338H536.212H535.212C535.212 341.128 534.82 345.339 534.024 350.652L535.013 350.8ZM536.212 338H537.212V316.8H536.212H535.212V338H536.212ZM643.1 132.4V131.4H642.1V132.4H643.1ZM705.9 132.4H706.9V131.4H705.9V132.4ZM705.9 242H704.9V243H705.9V242ZM821.5 242V243H822.5V242H821.5ZM821.5 132.4V131.4H820.5V132.4H821.5ZM884.3 132.4H885.3V131.4H884.3V132.4ZM884.3 418V419H885.3V418H884.3ZM821.5 418H820.5V419H821.5V418ZM821.5 294.8H822.5V293.8H821.5V294.8ZM705.9 294.8V293.8H704.9V294.8H705.9ZM705.9 418V419H706.9V418H705.9ZM643.1 418H642.1V419H643.1V418ZM643.1 132.4V133.4H705.9V132.4V131.4H643.1V132.4ZM705.9 132.4H704.9V242H705.9H706.9V132.4H705.9ZM705.9 242V243H821.5V242V241H705.9V242ZM821.5 242H822.5V132.4H821.5H820.5V242H821.5ZM821.5 132.4V133.4H884.3V132.4V131.4H821.5V132.4ZM884.3 132.4H883.3V418H884.3H885.3V132.4H884.3ZM884.3 418V417H821.5V418V419H884.3V418ZM821.5 418H822.5V294.8H821.5H820.5V418H821.5ZM821.5 294.8V293.8H705.9V294.8V295.8H821.5V294.8ZM705.9 294.8H704.9V418H705.9H706.9V294.8H705.9ZM705.9 418V417H643.1V418V419H705.9V418ZM643.1 418H644.1V132.4H643.1H642.1V418H643.1ZM986.384 339.2L985.404 339.396L985.405 339.403L986.384 339.2ZM994.384 360.4L993.521 360.904L993.533 360.925L993.547 360.946L994.384 360.4ZM1009.98 375.2L1009.48 376.064L1009.98 375.2ZM1057.98 375.2L1057.5 374.327L1057.49 374.332L1057.48 374.336L1057.98 375.2ZM1073.58 360.4L1072.74 359.87L1072.73 359.88L1073.58 360.4ZM1081.98 339.2L1082.96 339.403L1082.96 339.396L1081.98 339.2ZM1081.98 290.4L1081 290.596L1081.98 290.4ZM1073.58 269.2L1072.73 269.72L1072.74 269.733L1072.75 269.746L1073.58 269.2ZM1057.98 254.4L1057.45 255.248L1057.47 255.261L1057.5 255.273L1057.98 254.4ZM1009.98 254.4L1010.49 255.264L1010.5 255.256L1010.51 255.248L1009.98 254.4ZM994.384 269.2L993.547 268.654L993.538 268.667L993.53 268.68L994.384 269.2ZM986.384 290.4L985.404 290.204L986.384 290.4ZM934.784 270L935.719 270.355L935.721 270.349L934.784 270ZM956.384 235.6L957.092 236.307L957.101 236.297L956.384 235.6ZM989.984 213.6L990.346 214.532L990.354 214.529L990.362 214.526L989.984 213.6ZM1077.98 213.6L1077.61 214.526L1077.62 214.53L1077.63 214.535L1077.98 213.6ZM1111.98 235.6L1111.27 236.297L1111.28 236.307L1111.98 235.6ZM1133.58 270L1132.65 270.349L1132.65 270.355L1133.58 270ZM1133.58 359.6L1132.65 359.245L1133.58 359.6ZM1111.98 394L1112.69 394.707L1112.7 394.697L1111.98 394ZM1077.98 415.6L1077.63 414.665L1077.62 414.668L1077.98 415.6ZM989.984 415.6L989.623 416.532L989.984 415.6ZM956.384 394L955.667 394.697L955.677 394.707L956.384 394ZM934.784 359.6L935.719 359.245L934.784 359.6ZM983.984 314.8H982.984C982.984 323.132 983.791 331.331 985.404 339.396L986.384 339.2L987.365 339.004C985.778 331.069 984.984 323.002 984.984 314.8H983.984ZM986.384 339.2L985.405 339.403C987.026 347.235 989.729 354.404 993.521 360.904L994.384 360.4L995.248 359.896C991.573 353.596 988.943 346.632 987.364 338.997L986.384 339.2ZM994.384 360.4L993.547 360.946C997.633 367.212 1002.95 372.253 1009.48 376.064L1009.98 375.2L1010.49 374.336C1004.22 370.68 999.136 365.855 995.222 359.854L994.384 360.4ZM1009.98 375.2L1009.48 376.064C1016.07 379.909 1024.26 381.8 1033.98 381.8V380.8V379.8C1024.51 379.8 1016.7 377.958 1010.49 374.336L1009.98 375.2ZM1033.98 380.8V381.8C1043.71 381.8 1051.9 379.909 1058.49 376.064L1057.98 375.2L1057.48 374.336C1051.27 377.958 1043.46 379.8 1033.98 379.8V380.8ZM1057.98 375.2L1058.47 376.073C1065.28 372.261 1070.61 367.21 1074.44 360.92L1073.58 360.4L1072.73 359.88C1069.09 365.857 1064.02 370.673 1057.5 374.327L1057.98 375.2ZM1073.58 360.4L1074.43 360.93C1078.5 354.425 1081.34 347.247 1082.96 339.403L1081.98 339.2L1081.01 338.997C1079.43 346.62 1076.67 353.575 1072.74 359.87L1073.58 360.4ZM1081.98 339.2L1082.96 339.396C1084.58 331.331 1085.38 323.132 1085.38 314.8H1084.38H1083.38C1083.38 323.002 1082.59 331.069 1081 339.004L1081.98 339.2ZM1084.38 314.8H1085.38C1085.38 306.468 1084.58 298.269 1082.96 290.204L1081.98 290.4L1081 290.596C1082.59 298.531 1083.38 306.598 1083.38 314.8H1084.38ZM1081.98 290.4L1082.96 290.204C1081.34 282.093 1078.5 274.905 1074.42 268.654L1073.58 269.2L1072.75 269.746C1076.67 275.762 1079.43 282.707 1081 290.596L1081.98 290.4ZM1073.58 269.2L1074.44 268.68C1070.61 262.39 1065.28 257.339 1058.47 253.527L1057.98 254.4L1057.5 255.273C1064.02 258.927 1069.09 263.743 1072.73 269.72L1073.58 269.2ZM1057.98 254.4L1058.51 253.552C1051.92 249.429 1043.72 247.4 1033.98 247.4V248.4V249.4C1043.45 249.4 1051.25 251.371 1057.45 255.248L1057.98 254.4ZM1033.98 248.4V247.4C1024.25 247.4 1016.05 249.429 1009.45 253.552L1009.98 254.4L1010.51 255.248C1016.72 251.371 1024.52 249.4 1033.98 249.4V248.4ZM1009.98 254.4L1009.48 253.536C1002.95 257.347 997.633 262.388 993.547 268.654L994.384 269.2L995.222 269.746C999.136 263.745 1004.22 258.92 1010.49 255.264L1009.98 254.4ZM994.384 269.2L993.53 268.68C989.728 274.926 987.024 282.105 985.404 290.204L986.384 290.4L987.365 290.596C988.945 282.695 991.574 275.741 995.239 269.72L994.384 269.2ZM986.384 290.4L985.404 290.204C983.791 298.269 982.984 306.468 982.984 314.8H983.984H984.984C984.984 306.598 985.778 298.531 987.365 290.596L986.384 290.4ZM927.184 314.8H928.184C928.184 298.369 930.702 283.559 935.719 270.355L934.784 270L933.85 269.645C928.734 283.108 926.184 298.164 926.184 314.8H927.184ZM934.784 270L935.721 270.349C940.743 256.87 947.869 245.529 957.091 236.307L956.384 235.6L955.677 234.893C946.233 244.337 938.959 255.93 933.847 269.651L934.784 270ZM956.384 235.6L957.101 236.297C966.33 226.805 977.407 219.55 990.346 214.532L989.984 213.6L989.623 212.668C976.429 217.784 965.106 225.195 955.667 234.903L956.384 235.6ZM989.984 213.6L990.362 214.526C1003.29 209.248 1017.83 206.6 1033.98 206.6V205.6V204.6C1017.61 204.6 1002.81 207.285 989.607 212.674L989.984 213.6ZM1033.98 205.6V206.6C1050.14 206.6 1064.68 209.248 1077.61 214.526L1077.98 213.6L1078.36 212.674C1065.16 207.285 1050.36 204.6 1033.98 204.6V205.6ZM1077.98 213.6L1077.63 214.535C1090.84 219.553 1102.04 226.809 1111.27 236.297L1111.98 235.6L1112.7 234.903C1103.26 225.191 1091.8 217.78 1078.34 212.665L1077.98 213.6ZM1111.98 235.6L1111.28 236.307C1120.5 245.529 1127.63 256.87 1132.65 270.349L1133.58 270L1134.52 269.651C1129.41 255.93 1122.14 244.337 1112.69 234.893L1111.98 235.6ZM1133.58 270L1132.65 270.355C1137.67 283.559 1140.18 298.369 1140.18 314.8H1141.18H1142.18C1142.18 298.164 1139.64 283.108 1134.52 269.645L1133.58 270ZM1141.18 314.8H1140.18C1140.18 331.231 1137.67 346.041 1132.65 359.245L1133.58 359.6L1134.52 359.955C1139.64 346.492 1142.18 331.436 1142.18 314.8H1141.18ZM1133.58 359.6L1132.65 359.245C1127.63 372.459 1120.5 383.807 1111.27 393.303L1111.98 394L1112.7 394.697C1122.14 384.993 1129.41 373.408 1134.52 359.955L1133.58 359.6ZM1111.98 394L1111.28 393.293C1102.05 402.518 1090.84 409.645 1077.63 414.665L1077.98 415.6L1078.34 416.535C1091.79 411.422 1103.25 404.148 1112.69 394.707L1111.98 394ZM1077.98 415.6L1077.62 414.668C1064.69 419.683 1050.15 422.2 1033.98 422.2V423.2V424.2C1050.36 424.2 1065.15 421.65 1078.35 416.532L1077.98 415.6ZM1033.98 423.2V422.2C1017.82 422.2 1003.28 419.683 990.346 414.668L989.984 415.6L989.623 416.532C1002.82 421.65 1017.61 424.2 1033.98 424.2V423.2ZM989.984 415.6L990.346 414.668C977.401 409.648 966.321 402.522 957.091 393.293L956.384 394L955.677 394.707C965.115 404.145 976.435 411.419 989.623 416.532L989.984 415.6ZM956.384 394L957.101 393.303C947.869 383.807 940.741 372.459 935.719 359.245L934.784 359.6L933.85 359.955C938.962 373.408 946.233 384.993 955.667 394.697L956.384 394ZM934.784 359.6L935.719 359.245C930.702 346.041 928.184 331.231 928.184 314.8H927.184H926.184C926.184 331.436 928.734 346.492 933.85 359.955L934.784 359.6Z" fill="black" mask="url(#path-2-outside-1_326_3746)"/>
</g>
<rect width="1340" height="564" fill="black" fill-opacity="0.01"/>
<defs>
<filter id="filter0_d_326_3746" x="75.6" y="45" width="1204.72" height="496" filterUnits="userSpaceOnUse" color-interpolation-filters="sRGB">
<feFlood flood-opacity="0" result="BackgroundImageFix"/>
<feColorMatrix in="SourceAlpha" type="matrix" values="0 0 0 0 0 0 0 0 0 0 0 0 0 0 0 0 0 0 127 0" result="hardAlpha"/>
<feOffset dy="4"/>
<feGaussianBlur stdDeviation="2"/>
<feComposite in2="hardAlpha" operator="out"/>
<feColorMatrix type="matrix" values="0 0 0 0 0 0 0 0 0 0 0 0 0 0 0 0 0 0 0.25 0"/>
<feBlend mode="normal" in2="BackgroundImageFix" result="effect1_dropShadow_326_3746"/>
<feBlend mode="normal" in="SourceGraphic" in2="effect1_dropShadow_326_3746" result="shape"/>
</filter>
</defs>
</svg>
